# xmcd
# Copyright (C) 1995-1998 Ti Kan
#
# Track frame offsets:
#       150
#       18526
#       33329
#
# Disc length: 558 seconds
#
# Revision: 0
# Processed by: cddbd v1.5.2PL0 Copyright (c) Steve Scherf et al.
# Submitted via: CD-Transfer v1.0
#
DISCID=1b022c03
DTITLE=Weihnachten 06 - 
DYEAR=1900
DGENRE=
TTITLE0=Manuel Hartweger - Diesmal Wird Es Anders
TTITLE1=Manuel Hartweger/ Jedes Jahr Freu´n Wir Uns Auf Die Weihnachtszeit
TTITLE2=Manuel Hartweger/ Leise Rieselt Der Schnee
EXTD=
EXTT0=
EXTT1=
EXTT2=
PLAYORDER=
